<?xml version="1.0" encoding="utf-8"?>
<!-- Generator: Adobe Illustrator 15.0.2, SVG Export Plug-In  -->
<!DOCTYPE svg PUBLIC "-//W3C//DTD SVG 1.1//EN" "http://www.w3.org/Graphics/SVG/1.1/DTD/svg11.dtd" [
	<!ENTITY ns_flows "http://ns.adobe.com/Flows/1.0/">
]>
<svg version="1.1"
	 xmlns="http://www.w3.org/2000/svg" xmlns:xlink="http://www.w3.org/1999/xlink" xmlns:a="http://ns.adobe.com/AdobeSVGViewerExtensions/3.0/"
	 x="0px" y="0px" width="267px" height="267px" viewBox="0 0 267 267" overflow="visible" enable-background="new 0 0 267 267"
	 xml:space="preserve">
<defs>
</defs>
<g>
	<g>
		<g>
			<g>
				<path fill="#B61D3B" d="M133.843,133.438L92.609,6.531C106.626,1.976,119.104,0,133.843,0V133.438z"/>
			</g>
		</g>
		<g>
			<g>
				<path fill="#045198" d="M133.843,133.438L6.937,92.203C20.601,50.15,50.556,20.195,92.609,6.531L133.843,133.438z"/>
			</g>
		</g>
		<g>
			<g>
				<path fill="#D87B3D" d="M133.843,133.438L25.89,211.87C-0.1,176.098-6.727,134.256,6.937,92.203L133.843,133.438z"/>
			</g>
		</g>
		<g>
			<g>
				<path fill="#009D34" d="M133.843,133.438l41.234,126.906c-56.07,18.219-114.534-0.777-149.188-48.474L133.843,133.438z"/>
			</g>
		</g>
		<g>
			<g>
				<path fill="#7F5897" d="M133.843,133.438V0c73.695,0,133.438,59.742,133.438,133.438c0,58.956-36.132,108.688-92.203,126.906
					L133.843,133.438z"/>
			</g>
		</g>
	</g>
	<g>
		<g>
		</g>
		<g>
		</g>
		<g>
		</g>
		<g>
		</g>
		<g>
		</g>
	</g>
</g>
</svg>
